<?xml version="1.0" encoding="utf-8"?>
<!-- Generator: Adobe Illustrator 19.1.0, SVG Export Plug-In . SVG Version: 6.00 Build 0)  -->
<svg version="1.1" id="Layer_1" xmlns="http://www.w3.org/2000/svg" xmlns:xlink="http://www.w3.org/1999/xlink" x="0px" y="0px"
	 viewBox="0 0 1932.1 927.8" style="enable-background:new 0 0 1932.1 927.8;" xml:space="preserve">
<style type="text/css">
	.st0{fill:#010101;}
	.st1{opacity:0.22;fill:#565F52;}
	.st2{opacity:0.19;fill:#565F52;}
	.st3{fill:#FFFFFF;}
</style>
<rect x="0" class="st0" width="1932.1" height="927.8"/>
<g>
	<path class="st1" d="M930.9,147.2c-136.4,3-136.4-10.3-99.2-29.7c37.2-19.4,62-26.7-32.3-36.3C705.1,71.5,0,103,0,103v18.2
		c0,0,392.5-1.2,529-10s196-0.9,151.3,8.8c-44.7,9.7-62,52.1,158.8,80.6c0.5,0.1,338.3,15.1,338.3,15.1s249.4,3.3,251.5,3.4
		c74.1,0.3,435.2,0.3,503.2,0.1V116.3C1652,132.2,1019.9,145.2,930.9,147.2z"/>
</g>
<path class="st2" d="M1834.6,558.1c60.7,2,97.5,6,97.5,6V439c-36.6-0.5-277.5,9.4-479.1-4.1c-867-57.7-767.4-215.3-859.7-215.3
	s-65.8-31.4-31-55C605.4,135.4,0,156.4,0,156.4V173c0,0,556.9-20.1,440.7,8.5c-115.1,28.3-138.5,94.8,78.5,123.9
	C603,316.6,537,514.4,1834.6,558.1z"/>
<circle class="st3" cx="483.5" cy="226.3" r="1.5"/>
<circle class="st3" cx="787.7" cy="142.9" r="1.5"/>
<circle class="st3" cx="647.2" cy="305.1" r="1.5"/>
<circle class="st3" cx="1349" cy="168.9" r="1.5"/>
<circle class="st3" cx="1253" cy="226.3" r="1.5"/>
<circle class="st3" cx="1154.9" cy="170.4" r="1.5"/>
<circle class="st3" cx="1145.6" cy="78.4" r="1.5"/>
<circle class="st3" cx="1485" cy="318.1" r="1.5"/>
<circle class="st3" cx="454.7" cy="378.7" r="1.5"/>
<circle class="st3" cx="1472.5" cy="571.9" r="1.5"/>
<circle class="st3" cx="521.9" cy="607.4" r="1.5"/>
<circle class="st3" cx="1397.2" cy="577.3" r="1.5"/>
<circle class="st3" cx="1567" cy="739" r="1.5"/>
<circle class="st3" cx="1492" cy="906.1" r="1.5"/>
<circle class="st3" cx="1696" cy="661" r="1.5"/>
<circle class="st3" cx="1873.5" cy="764.4" r="1.5"/>
<circle class="st3" cx="1639" cy="306.6" r="1.5"/>
<circle class="st3" cx="1710.1" cy="398.7" r="1.5"/>
<circle class="st3" cx="1834.6" cy="622.3" r="1.5"/>
<circle class="st3" cx="1836.1" cy="303.6" r="1.5"/>
<circle class="st3" cx="1711.6" cy="185.5" r="1.5"/>
<circle class="st3" cx="1567" cy="59.9" r="1.5"/>
<circle class="st3" cx="1688.5" cy="825.6" r="1.5"/>
<circle class="st3" cx="298.2" cy="793" r="1.5"/>
<circle class="st3" cx="411.2" cy="879.4" r="1.5"/>
<circle class="st3" cx="118" cy="841.9" r="1.5"/>
<circle class="st3" cx="87" cy="647.1" r="1.5"/>
<circle class="st3" cx="191.5" cy="543.9" r="1.5"/>
<circle class="st3" cx="119.5" cy="398.9" r="1.5"/>
<circle class="st3" cx="241.5" cy="265.5" r="1.5"/>
<circle class="st3" cx="96.5" cy="227.4" r="1.5"/>
<circle class="st3" cx="243" cy="61.4" r="1.5"/>
<circle class="st3" cx="414.2" cy="629.4" r="1.5"/>
</svg>
